<svg width="788" height="199" viewBox="0 0 788 199" fill="none" xmlns="http://www.w3.org/2000/svg">
<path d="M143.648 3.72998C65.8183 3.72998 2.73828 44.09 2.73828 93.88C2.73828 143.67 65.8283 187.93 143.648 187.93C221.468 187.93 284.558 143.66 284.558 93.88C284.558 44.1 221.468 3.72998 143.648 3.72998Z" fill="#00BCFF"/>
<path d="M97.799 66.0102C97.729 66.1502 96.349 67.5701 97.249 68.7201C99.429 71.5001 106.159 73.1002 112.969 71.5702C117.019 70.6602 122.219 66.5302 127.249 62.5402C132.699 58.2102 138.109 53.8702 143.549 52.1502C149.309 50.3202 152.999 51.1002 155.439 51.8402C158.109 52.6402 161.259 54.4001 166.279 58.1601C175.729 65.2601 213.709 98.4202 220.279 104.15C225.559 101.76 250.749 91.5901 282.669 84.5501C279.889 67.5301 269.659 51.3002 253.949 38.5602C232.059 47.7502 203.529 53.2601 177.369 40.4901C177.239 40.4401 163.079 33.7402 149.119 34.0702C128.369 34.5502 119.379 43.5302 109.869 53.0402L97.819 66.0302L97.799 66.0102Z" fill="white"/>
<path d="M218.71 107.76C218.26 107.36 174.04 68.6701 164.02 61.1401C158.22 56.7901 155 55.6801 151.61 55.2501C149.85 55.0201 147.41 55.3501 145.71 55.8201C141.05 57.0901 134.96 61.1601 129.55 65.4501C123.95 69.9101 118.67 74.1101 113.76 75.2101C107.5 76.6101 99.8503 74.9601 96.3603 72.6001C94.9503 71.6501 93.9503 70.5501 93.4703 69.4401C92.1803 66.4501 94.5603 64.0601 94.9503 63.6601L107.15 50.4601C108.57 49.0501 110 47.6301 111.46 46.2301C107.52 46.7401 103.88 47.7501 100.34 48.7301C95.9203 49.9701 91.6603 51.1501 87.3603 51.1501C85.5603 51.1501 75.9403 49.5701 74.1103 49.0801C63.0603 46.0601 50.5503 43.1101 36.0703 36.3501C18.7203 49.2601 7.42031 65.1201 4.07031 82.9101C6.56031 83.5701 13.0903 85.0601 14.7803 85.4301C54.0403 94.1601 66.2703 103.15 68.4903 105.03C70.8903 102.36 74.3603 100.67 78.2203 100.67C82.5703 100.67 86.4803 102.86 88.8603 106.23C91.1103 104.45 94.2103 102.93 98.2203 102.94C100.04 102.94 101.93 103.28 103.84 103.92C108.27 105.44 110.56 108.39 111.74 111.06C113.22 110.39 115.05 109.89 117.2 109.9C119.32 109.9 121.52 110.38 123.73 111.34C130.97 114.45 132.09 121.56 131.44 126.92C131.96 126.86 132.48 126.84 133 126.84C141.58 126.84 148.56 133.82 148.56 142.41C148.56 145.07 147.88 147.57 146.7 149.76C149.04 151.07 154.99 154.04 160.22 153.38C164.39 152.85 165.98 151.43 166.54 150.62C166.93 150.07 167.34 149.42 166.96 148.96L155.88 136.66C155.88 136.66 154.06 134.93 154.66 134.27C155.28 133.59 156.41 134.57 157.21 135.23C162.85 139.94 169.73 147.04 169.73 147.04C169.85 147.12 170.3 148.02 172.85 148.47C175.04 148.86 178.92 148.64 181.61 146.43C182.28 145.87 182.96 145.18 183.54 144.46C183.49 144.5 183.45 144.54 183.41 144.56C186.25 140.93 183.09 137.27 183.09 137.27L170.16 122.75C170.16 122.75 168.31 121.04 168.94 120.35C169.5 119.75 170.69 120.65 171.5 121.33C175.59 124.75 181.38 130.56 186.92 135.99C188.01 136.78 192.88 139.79 199.33 135.56C203.25 132.99 204.03 129.83 203.92 127.46C203.65 124.31 201.19 122.06 201.19 122.06L183.53 104.3C183.53 104.3 181.66 102.71 182.32 101.9C182.86 101.22 184.07 102.2 184.87 102.86C190.49 107.57 205.73 121.54 205.73 121.54C205.95 121.69 211.21 125.44 217.72 121.3C220.05 119.81 221.53 117.57 221.66 114.96C221.88 110.44 218.7 107.76 218.7 107.76H218.71Z" fill="white"/>
<path d="M133.028 130.27C130.288 130.24 127.288 131.87 126.898 131.63C126.678 131.49 127.068 130.39 127.318 129.75C127.588 129.12 131.188 118.27 122.398 114.5C115.668 111.61 111.548 114.86 110.138 116.33C109.768 116.71 109.598 116.68 109.558 116.2C109.418 114.24 108.548 108.96 102.738 107.18C94.4377 104.64 89.0977 110.43 87.7477 112.53C87.1377 107.8 83.1377 104.13 78.2477 104.12C72.9276 104.12 68.6077 108.42 68.5977 113.75C68.5977 119.07 72.9077 123.39 78.2377 123.39C80.8277 123.39 83.1677 122.36 84.8977 120.7C84.9577 120.75 84.9776 120.84 84.9476 121.02C84.5376 123.41 83.7977 132.06 92.8677 135.59C96.5077 137 99.5977 135.95 102.158 134.16C102.918 133.62 103.048 133.85 102.938 134.57C102.608 136.8 103.028 141.56 109.708 144.27C114.788 146.34 117.798 144.23 119.778 142.4C120.638 141.62 120.868 141.75 120.918 142.96C121.158 149.4 126.508 154.52 133.008 154.53C139.708 154.53 145.138 149.12 145.138 142.43C145.138 135.73 139.718 130.37 133.018 130.3L133.028 130.27Z" fill="white"/>
<path d="M143.62 0C64.31 0 0.0200043 42.18 0.0200043 93.92C0.0200043 95.26 0 98.95 0 99.42C0 154.32 56.19 198.77 143.6 198.77C231.01 198.77 287.21 154.32 287.21 99.43V93.92C287.21 42.18 222.92 0 143.62 0ZM280.74 83.51C249.53 90.45 226.25 100.52 220.42 103.12C206.8 91.23 175.32 63.86 166.79 57.46C161.92 53.79 158.59 51.86 155.67 50.99C154.36 50.59 152.55 50.14 150.22 50.14C148.05 50.14 145.72 50.53 143.29 51.31C137.78 53.06 132.29 57.42 126.98 61.64L126.71 61.86C121.76 65.79 116.65 69.86 112.78 70.72C111.09 71.1 109.35 71.3 107.62 71.3C103.28 71.3 99.39 70.04 97.93 68.18C97.69 67.87 97.85 67.37 98.41 66.66L98.48 66.56L110.47 53.65C119.86 44.26 128.72 35.4 149.13 34.93C149.47 34.92 149.81 34.91 150.15 34.91C162.85 34.92 175.55 40.6 176.98 41.27C188.89 47.08 201.19 50.03 213.54 50.04C226.39 50.04 239.65 46.87 253.59 40.46C268.15 52.7 277.8 67.45 280.74 83.52V83.51ZM143.64 5.54C185.74 5.54 223.4 17.61 248.73 36.61C236.49 41.91 224.82 44.58 213.56 44.58C202.04 44.57 190.53 41.8 179.35 36.35C178.76 36.07 164.74 29.46 150.15 29.45C149.77 29.45 149.38 29.45 149 29.46C131.86 29.86 122.2 35.95 115.71 41.28C109.4 41.44 103.95 42.96 99.1 44.31C94.77 45.51 91.04 46.55 87.4 46.55C85.9 46.55 83.2 46.41 82.96 46.4C78.78 46.27 57.78 41.12 41.01 34.79C66.28 16.83 102.9 5.53 143.65 5.53L143.64 5.54ZM36.03 38.55C53.54 45.71 74.79 51.25 81.51 51.68C83.38 51.8 85.38 52.02 87.38 52.02C91.84 52.02 96.29 50.77 100.59 49.57C103.13 48.86 105.94 48.08 108.89 47.52C108.1 48.29 107.31 49.08 106.52 49.87L94.35 63.04C93.39 64.01 91.31 66.59 92.68 69.77C93.22 71.05 94.33 72.28 95.88 73.32C98.78 75.27 103.98 76.6 108.8 76.6C110.63 76.6 112.37 76.42 113.95 76.06C119.06 74.92 124.41 70.65 130.08 66.14C134.6 62.55 141.02 57.99 145.94 56.65C147.32 56.28 149 56.04 150.36 56.04C150.77 56.04 151.15 56.06 151.5 56.11C154.74 56.52 157.88 57.62 163.49 61.83C173.49 69.34 217.71 108.03 218.14 108.41C218.17 108.43 220.99 110.87 220.79 114.91C220.68 117.17 219.43 119.17 217.25 120.56C215.36 121.76 213.42 122.37 211.45 122.37C208.49 122.37 206.46 120.98 206.32 120.89C206.16 120.76 191.01 106.86 185.43 102.19C184.54 101.45 183.68 100.79 182.81 100.79C182.34 100.79 181.93 100.99 181.65 101.34C180.77 102.42 181.75 103.92 182.91 104.9L200.61 122.7C200.61 122.7 202.82 124.76 203.06 127.49C203.2 130.44 201.79 132.91 198.86 134.83C196.77 136.21 194.66 136.9 192.59 136.9C189.87 136.9 187.96 135.66 187.54 135.37L185 132.87C180.36 128.3 175.57 123.58 172.06 120.66C171.2 119.95 170.29 119.29 169.42 119.29C168.99 119.29 168.6 119.45 168.3 119.77C167.9 120.21 167.62 121.01 168.62 122.34C169.02 122.89 169.51 123.34 169.51 123.34L182.42 137.85C182.52 137.98 185.08 141.02 182.71 144.04L182.25 144.62C181.86 145.04 181.45 145.44 181.05 145.78C178.85 147.59 175.91 147.78 174.74 147.78C174.11 147.78 173.52 147.73 172.99 147.63C171.72 147.4 170.86 147.05 170.44 146.56L170.28 146.4C169.58 145.67 163.07 139.02 157.68 134.53C156.97 133.93 156.08 133.19 155.17 133.19C154.72 133.19 154.32 133.37 154 133.71C152.94 134.88 154.54 136.62 155.22 137.26L166.23 149.41C166.22 149.52 166.08 149.77 165.82 150.15C165.42 150.7 164.09 152.03 160.09 152.53C159.61 152.59 159.11 152.62 158.63 152.62C154.51 152.62 150.11 150.62 147.84 149.42C148.87 147.24 149.41 144.84 149.41 142.44C149.41 133.37 142.05 126 132.98 125.99C132.79 125.99 132.58 125.99 132.39 126C132.68 121.86 132.1 114.02 124.05 110.57C121.73 109.57 119.42 109.05 117.18 109.05C115.42 109.05 113.73 109.35 112.14 109.96C110.47 106.72 107.7 104.36 104.1 103.13C102.1 102.44 100.12 102.09 98.2 102.09C94.85 102.09 91.76 103.08 89.01 105.03C86.37 101.75 82.39 99.81 78.2 99.81C74.53 99.81 71 101.28 68.39 103.87C64.96 101.25 51.36 92.61 14.95 84.34C13.21 83.95 9.26 82.82 6.78 82.09C10.19 65.75 20.58 50.82 35.98 38.57L36.03 38.55ZM103.57 133.33L103.18 132.98H102.78C102.46 132.98 102.12 133.11 101.67 133.43C99.81 134.74 98.04 135.37 96.23 135.37C95.23 135.37 94.21 135.17 93.19 134.78C84.75 131.49 85.41 123.53 85.83 121.13C85.89 120.64 85.77 120.27 85.46 120.01L84.86 119.52L84.3 120.05C82.65 121.64 80.5 122.5 78.24 122.5C73.41 122.5 69.47 118.57 69.48 113.73C69.48 108.9 73.42 104.97 78.26 104.98C82.63 104.98 86.35 108.26 86.9 112.63L87.2 114.98L88.49 112.99C88.63 112.76 92.18 107.4 98.69 107.41C99.93 107.41 101.21 107.61 102.5 108.01C107.69 109.59 108.57 114.3 108.7 116.26C108.79 117.4 109.61 117.46 109.76 117.46C110.21 117.46 110.54 117.18 110.77 116.93C111.75 115.91 113.88 114.21 117.22 114.21C118.75 114.21 120.37 114.58 122.05 115.3C130.3 118.84 126.56 129.32 126.52 129.43C125.81 131.17 125.78 131.93 126.45 132.38L126.77 132.53H127.01C127.38 132.53 127.84 132.37 128.61 132.11C129.73 131.72 131.42 131.14 133.01 131.14C139.22 131.21 144.27 136.27 144.27 142.4C144.27 148.6 139.21 153.64 133 153.64C126.93 153.64 121.99 148.91 121.77 142.9C121.75 142.38 121.7 141.02 120.54 141.02C120.07 141.02 119.65 141.31 119.18 141.74C117.84 142.98 116.14 144.23 113.66 144.23C112.53 144.23 111.31 143.97 110.02 143.44C103.61 140.84 103.52 136.44 103.78 134.67C103.85 134.2 103.87 133.71 103.55 133.32L103.57 133.33ZM143.64 182.21C67.38 182.21 5.56 142.66 5.56 93.88C5.56 91.92 5.7 89.97 5.89 88.04C6.5 88.19 12.56 89.63 13.81 89.92C51 98.18 63.29 106.77 65.37 108.4C64.67 110.09 64.3 111.91 64.3 113.75C64.3 121.44 70.55 127.7 78.23 127.7C79.09 127.7 79.95 127.62 80.79 127.46C81.95 133.12 85.65 137.41 91.3 139.61C92.95 140.24 94.62 140.57 96.27 140.57C97.33 140.57 98.4 140.44 99.44 140.18C100.49 142.83 102.83 146.14 108.09 148.27C109.93 149.01 111.77 149.4 113.56 149.4C115.02 149.4 116.45 149.14 117.81 148.64C120.33 154.77 126.32 158.84 133 158.84C137.43 158.84 141.68 157.04 144.78 153.85C147.43 155.33 153.03 158 158.69 158.01C159.42 158.01 160.1 157.96 160.8 157.88C166.42 157.17 169.03 154.97 170.23 153.26C170.45 152.96 170.64 152.64 170.81 152.31C172.13 152.69 173.59 153 175.27 153.01C178.34 153.01 181.28 151.96 184.26 149.8C187.19 147.69 189.27 144.66 189.57 142.08C189.57 142.05 189.57 142.01 189.58 141.97C190.57 142.17 191.58 142.27 192.59 142.27C195.75 142.27 198.86 141.29 201.83 139.34C207.56 135.59 208.55 130.68 208.46 127.47C209.47 127.68 210.49 127.79 211.51 127.79C214.47 127.79 217.39 126.9 220.16 125.13C223.71 122.86 225.85 119.38 226.18 115.34C226.39 112.59 225.71 109.81 224.27 107.43C233.85 103.3 255.75 95.31 281.54 89.5C281.65 90.96 281.71 92.43 281.71 93.91C281.71 142.69 219.89 182.24 143.64 182.24V182.21Z" fill="#0A0080"/>
<path d="M779.527 28.9099C774.317 22.3699 766.397 19.1099 755.777 19.1099C745.157 19.1099 737.247 22.3799 732.037 28.9099C726.817 35.4399 724.207 43.1599 724.207 52.0699C724.207 60.9799 726.817 68.8798 732.037 75.3298C737.247 81.7598 745.167 84.9799 755.777 84.9799C766.387 84.9799 774.317 81.7598 779.527 75.3298C784.747 68.8798 787.347 61.1399 787.347 52.0699C787.347 42.9999 784.747 35.4399 779.527 28.9099ZM766.607 66.3899C764.077 69.7399 760.457 71.4299 755.717 71.4299C750.977 71.4299 747.357 69.7399 744.807 66.3899C742.257 63.0399 740.987 58.2599 740.987 52.0699C740.987 45.8799 742.257 41.1199 744.807 37.7799C747.357 34.4399 750.997 32.7699 755.717 32.7699C760.437 32.7699 764.067 34.4399 766.607 37.7799C769.137 41.1199 770.407 45.8899 770.407 52.0699C770.407 58.2499 769.137 63.0399 766.607 66.3899Z" fill="#0A0080"/>
<path d="M646.249 23.4399C640.959 20.7599 634.909 19.4099 628.099 19.4099C617.629 19.4099 610.239 22.1399 605.929 27.5899C603.219 31.0799 601.709 35.5399 601.349 40.9599H616.999C617.379 38.5599 618.149 36.6699 619.309 35.2699C620.919 33.3799 623.669 32.4299 627.539 32.4299C630.999 32.4299 633.619 32.9099 635.419 33.8799C637.199 34.8399 638.099 36.5999 638.099 39.1399C638.099 41.2299 636.939 42.7499 634.609 43.7499C633.309 44.3199 631.149 44.7899 628.129 45.1699L622.579 45.8499C616.279 46.6499 611.499 47.9799 608.259 49.8399C602.339 53.2499 599.379 58.7699 599.379 66.3899C599.379 72.2599 601.209 76.7999 604.899 79.9999C608.569 83.2099 613.239 84.5499 618.879 84.8099C654.249 86.3999 653.859 66.1699 654.179 61.9699V38.6999C654.179 31.2299 651.529 26.1499 646.249 23.4499V23.4399ZM638.029 58.7599C637.919 64.1799 636.369 67.9099 633.389 69.9599C630.399 72.0099 627.149 73.0299 623.609 73.0299C621.369 73.0299 619.469 72.3999 617.909 71.1799C616.349 69.9499 615.569 67.9399 615.569 65.1699C615.569 62.0699 616.849 59.7799 619.399 58.2899C620.909 57.4199 623.389 56.6799 626.849 56.0899L630.539 55.3999C632.379 55.0499 633.819 54.6699 634.879 54.2699C635.949 53.8899 636.979 53.3699 638.009 52.7199V58.7499L638.029 58.7599Z" fill="#0A0080"/>
<path d="M565.589 33.2699C569.639 33.2699 572.599 34.5199 574.529 37.0199C575.839 38.8599 576.659 40.9499 576.979 43.2599H594.429C593.479 34.4499 590.399 28.3099 585.189 24.8299C579.969 21.3599 573.289 19.6199 565.119 19.6199C555.509 19.6199 547.969 22.5699 542.509 28.4599C537.049 34.3599 534.309 42.6099 534.309 53.2099C534.309 62.5899 536.779 70.2499 541.729 76.1399C546.679 82.0299 554.389 84.9799 564.869 84.9799C575.349 84.9799 583.289 81.4499 588.629 74.3699C591.979 69.9899 593.859 65.3399 594.249 60.4299H576.859C576.499 63.6799 575.489 66.3299 573.799 68.3699C572.129 70.3999 569.299 71.4299 565.299 71.4299C559.669 71.4299 555.829 68.8599 553.799 63.7099C552.679 60.9599 552.109 57.3299 552.109 52.7999C552.109 48.2699 552.679 44.2599 553.799 41.3699C555.919 35.9799 559.849 33.2699 565.589 33.2699Z" fill="#0A0080"/>
<path d="M529.627 19.6199C493.777 19.6199 495.907 51.3499 495.907 51.3499V83.5899H512.177V53.3599C512.177 48.3999 512.807 44.7399 514.037 42.3499C516.267 38.1199 520.637 35.9999 527.137 35.9999C527.627 35.9999 528.267 36.0299 529.057 36.0699C529.847 36.1099 530.747 36.1799 531.787 36.2999V19.7499C531.067 19.6999 530.597 19.6799 530.397 19.6499C530.187 19.6299 529.937 19.6199 529.627 19.6199Z" fill="#0A0080"/>
<path d="M482.867 31.6399C480.057 27.4799 476.487 24.4299 472.187 22.4899C467.877 20.5699 463.037 19.6099 457.667 19.6099C448.607 19.6099 441.247 22.4599 435.567 28.1699C429.897 33.8899 427.047 42.0899 427.047 52.7999C427.047 64.2299 430.197 72.4699 436.487 77.5399C442.767 82.5999 450.027 85.1499 458.247 85.1499C468.207 85.1499 475.957 82.1399 481.487 76.1299C484.477 72.9699 486.347 69.8399 487.137 66.7499H469.877C469.197 67.7299 468.467 68.5599 467.657 69.2099C465.357 71.0999 462.237 71.6799 458.567 71.6799C455.097 71.6799 452.367 71.1599 449.907 69.6099C445.847 67.1099 443.557 62.8899 443.317 56.6999H488.327C488.387 51.3599 488.217 47.2699 487.787 44.4299C487.047 39.5899 485.387 35.3299 482.867 31.6599V31.6399ZM443.717 46.0199C444.297 41.9999 445.747 38.8199 448.017 36.4599C450.307 34.1099 453.517 32.9299 457.667 32.9299C461.477 32.9299 464.677 34.0399 467.257 36.2699C469.827 38.4899 471.257 41.7499 471.557 46.0199H443.727H443.717Z" fill="#0A0080"/>
<path d="M394.728 19.3999C387.178 19.3999 380.648 22.7099 376.258 28.0099C372.088 22.7099 365.668 19.3999 357.778 19.3999C341.888 19.3999 331.648 31.0699 331.648 46.5199V83.5799H346.518V46.1699C346.518 39.3399 351.138 34.6199 357.788 34.6199C367.588 34.6199 368.598 42.7499 368.598 46.1699V83.5799H383.468V46.1699C383.468 39.3399 388.198 34.6199 394.728 34.6199C404.528 34.6199 405.658 42.7499 405.658 46.1699V83.5799H420.508V46.5199C420.508 30.5899 410.948 19.3999 394.718 19.3999H394.728Z" fill="#0A0080"/>
<path d="M702.978 11.4899L702.958 28.9199C701.148 25.9999 698.788 23.7199 695.878 22.0899C692.978 20.4499 689.648 19.6199 685.898 19.6199C677.768 19.6199 671.298 22.6499 666.438 28.6799C661.578 34.7299 659.148 43.4499 659.148 53.9899C659.148 63.1399 661.618 70.6399 666.548 76.4799C671.478 82.3099 681.148 84.8699 689.738 84.8699C719.688 84.8699 719.338 59.1899 719.338 59.1899V0.0799228C719.338 0.0799228 702.968 -1.67008 702.968 11.4899H702.978ZM699.848 66.5299C697.478 69.9299 693.988 71.6299 689.418 71.6299C684.848 71.6299 681.438 69.9099 679.188 66.4999C676.938 63.0699 675.818 58.0899 675.818 52.3899C675.818 47.0899 676.918 42.6699 679.128 39.0999C681.338 35.5299 684.798 33.7399 689.528 33.7399C692.628 33.7399 695.348 34.7199 697.698 36.6799C701.508 39.9299 703.428 45.7699 703.428 53.3199C703.428 58.7199 702.228 63.1299 699.848 66.5299Z" fill="#0A0080"/>
<path d="M366.018 108.45C352.618 107.82 345.858 111.01 341.448 114.38C335.358 119.03 331.648 125.91 331.648 136.9V193.41H339.528C341.638 193.41 343.748 192.68 345.298 191.25C347.038 189.65 347.908 187.69 347.908 185.39V164.27C349.828 167.58 352.358 170.01 355.558 171.59C358.588 173 362.088 173.71 366.068 173.71C373.558 173.71 379.708 170.73 384.478 164.74C389.258 158.59 391.648 150.59 391.648 140.68C391.648 130.77 389.388 123.71 383.968 117.11C379.588 111.77 372.928 108.76 366.028 108.45H366.018ZM371.568 154.83C369.178 158.14 365.908 159.79 361.768 159.79C357.308 159.79 353.878 158.15 351.488 154.83C349.098 151.84 347.898 147.38 347.898 141.38C347.898 134.95 349.008 130.22 351.238 127.23C353.638 123.94 356.988 122.27 361.288 122.27C365.588 122.27 369.178 123.93 371.568 127.23C373.968 130.54 375.158 135.25 375.158 141.38C375.158 147.06 373.968 151.52 371.568 154.83Z" fill="#0A0080"/>
<path d="M505.74 114.28C500.21 110.09 494.56 107.9 484.85 108.16C474.99 108.43 467.82 111.19 463.36 117.23C458.9 123.28 456.68 131.18 456.68 140.91C456.68 149.24 458.36 155.95 461.72 161.08C465.09 166.18 469.12 169.68 473.82 171.55C478.5 173.44 483.24 173.83 488.02 172.74C492.79 171.63 496.59 168.9 499.41 164.5V168.49C499.09 173.52 497.88 177.29 495.78 179.81C493.65 182.31 491.31 183.85 488.72 184.4C486.16 184.94 483.56 184.64 480.99 183.45C478.4 182.28 476.49 180.58 475.24 178.39H458.1C462.54 191.73 470.51 197.62 484.87 198.66C508.03 200.33 515.41 180.72 515.39 170.14V136.89C515.39 125.9 511.81 118.86 505.76 114.26L505.74 114.28ZM498.93 146.94C498.3 150.62 497.29 153.34 495.87 155.06C492.9 159.14 488.27 160.59 482.03 159.43C475.76 158.24 472.63 152.23 472.63 141.4C472.63 136.37 473.56 131.89 475.45 127.95C477.33 124.04 480.92 122.06 486.24 122.06C490.15 122.06 493.13 123.48 495.16 126.3C497.2 129.13 498.5 132.35 499.04 135.97C499.59 139.58 499.54 143.24 498.92 146.93L498.93 146.94Z" fill="#0A0080"/>
<path d="M442.76 112.63C437.47 109.96 431.42 108.6 424.61 108.6C414.14 108.6 406.76 111.33 402.46 116.79C399.76 120.27 398.24 124.73 397.88 130.15H413.53C413.91 127.76 414.68 125.86 415.83 124.47C417.44 122.58 420.19 121.62 424.06 121.62C427.53 121.62 430.15 122.1 431.94 123.07C433.72 124.03 434.61 125.79 434.61 128.33C434.61 130.41 433.45 131.95 431.12 132.93C429.82 133.5 427.66 133.97 424.64 134.35L419.1 135.02C412.8 135.82 408.01 137.15 404.79 139.01C398.86 142.42 395.91 147.93 395.91 155.55C395.91 161.42 397.74 165.96 401.43 169.16C405.1 172.37 409.77 173.71 415.42 173.97C450.78 175.55 450.38 155.33 450.7 151.13V127.86C450.7 120.4 448.07 115.32 442.78 112.62L442.76 112.63ZM434.54 147.94C434.44 153.37 432.88 157.09 429.91 159.14C426.93 161.19 423.67 162.21 420.13 162.21C417.89 162.21 416 161.58 414.43 160.36C412.87 159.13 412.09 157.13 412.09 154.36C412.09 151.26 413.37 148.97 415.92 147.49C417.44 146.62 419.91 145.88 423.37 145.29L427.07 144.61C428.91 144.26 430.36 143.89 431.4 143.49C432.47 143.1 433.51 142.58 434.54 141.93V147.96V147.94Z" fill="#0A0080"/>
<path d="M576.879 117.76C571.659 111.22 563.739 107.95 553.119 107.95C542.499 107.95 534.599 111.21 529.389 117.76C524.169 124.29 521.559 132 521.559 140.91C521.559 149.82 524.169 157.71 529.389 164.16C534.599 170.58 542.519 173.8 553.119 173.8C563.719 173.8 571.649 170.58 576.879 164.16C582.089 157.71 584.689 149.97 584.689 140.91C584.689 131.85 582.089 124.29 576.879 117.76ZM563.949 155.22C561.419 158.58 557.799 160.27 553.079 160.27C548.359 160.27 544.719 158.58 542.169 155.22C539.609 151.87 538.339 147.1 538.339 140.91C538.339 134.72 539.609 129.96 542.169 126.62C544.709 123.28 548.349 121.61 553.079 121.61C557.809 121.61 561.429 123.28 563.949 126.62C566.479 129.96 567.739 134.72 567.739 140.91C567.739 147.1 566.479 151.87 563.949 155.22Z" fill="#0A0080"/>
</svg>
