<?xml version="1.0" encoding="UTF-8"?>
<svg xmlns="http://www.w3.org/2000/svg" xmlns:xlink="http://www.w3.org/1999/xlink" width="111px" height="28px" viewBox="0 0 110 28" version="1.1">
<g id="surface1">
<path style=" stroke:none;fill-rule:nonzero;fill:rgb(0%,73.725492%,100%);fill-opacity:1;" d="M 20.050781 0.523438 C 9.1875 0.523438 0.382812 6.203125 0.382812 13.210938 C 0.382812 20.214844 9.1875 26.441406 20.050781 26.441406 C 30.914062 26.441406 39.722656 20.214844 39.722656 13.210938 C 39.722656 6.203125 30.914062 0.523438 20.050781 0.523438 Z M 20.050781 0.523438 "/>
<path style=" stroke:none;fill-rule:nonzero;fill:rgb(100%,100%,100%);fill-opacity:1;" d="M 13.652344 9.289062 C 13.640625 9.308594 13.449219 9.507812 13.574219 9.667969 C 13.878906 10.058594 14.820312 10.285156 15.769531 10.070312 C 16.335938 9.941406 17.0625 9.359375 17.761719 8.800781 C 18.523438 8.191406 19.277344 7.578125 20.039062 7.335938 C 20.84375 7.082031 21.359375 7.191406 21.699219 7.292969 C 22.070312 7.40625 22.511719 7.652344 23.210938 8.183594 C 24.53125 9.183594 29.832031 13.847656 30.75 14.652344 C 31.488281 14.316406 35.003906 12.886719 39.457031 11.898438 C 39.070312 9.5 37.644531 7.21875 35.449219 5.425781 C 32.394531 6.71875 28.410156 7.492188 24.757812 5.695312 C 24.742188 5.691406 22.765625 4.746094 20.816406 4.792969 C 17.917969 4.863281 16.664062 6.125 15.335938 7.464844 L 13.65625 9.289062 Z M 13.652344 9.289062 "/>
<path style=" stroke:none;fill-rule:nonzero;fill:rgb(100%,100%,100%);fill-opacity:1;" d="M 30.53125 15.164062 C 30.46875 15.105469 24.296875 9.664062 22.894531 8.601562 C 22.085938 7.992188 21.636719 7.835938 21.164062 7.773438 C 20.917969 7.742188 20.578125 7.789062 20.339844 7.855469 C 19.691406 8.03125 18.839844 8.605469 18.085938 9.210938 C 17.300781 9.835938 16.566406 10.425781 15.878906 10.582031 C 15.007812 10.78125 13.9375 10.546875 13.453125 10.214844 C 13.253906 10.082031 13.113281 9.925781 13.046875 9.769531 C 12.867188 9.351562 13.199219 9.011719 13.253906 8.957031 L 14.957031 7.101562 C 15.15625 6.902344 15.355469 6.703125 15.558594 6.503906 C 15.007812 6.578125 14.5 6.71875 14.007812 6.855469 C 13.390625 7.03125 12.796875 7.195312 12.195312 7.195312 C 11.945312 7.195312 10.601562 6.976562 10.34375 6.90625 C 8.804688 6.480469 7.054688 6.066406 5.035156 5.113281 C 2.613281 6.929688 1.035156 9.164062 0.566406 11.664062 C 0.914062 11.757812 1.828125 11.96875 2.0625 12.019531 C 7.542969 13.25 9.25 14.511719 9.5625 14.777344 C 9.894531 14.402344 10.378906 14.164062 10.917969 14.164062 C 11.527344 14.164062 12.070312 14.472656 12.40625 14.945312 C 12.71875 14.695312 13.152344 14.484375 13.710938 14.484375 C 13.964844 14.484375 14.230469 14.53125 14.496094 14.621094 C 15.113281 14.835938 15.433594 15.25 15.597656 15.625 C 15.804688 15.53125 16.058594 15.460938 16.359375 15.464844 C 16.65625 15.464844 16.964844 15.53125 17.273438 15.664062 C 18.28125 16.105469 18.4375 17.105469 18.347656 17.859375 C 18.421875 17.851562 18.492188 17.847656 18.566406 17.847656 C 19.765625 17.847656 20.738281 18.828125 20.738281 20.039062 C 20.738281 20.410156 20.644531 20.761719 20.476562 21.070312 C 20.804688 21.257812 21.636719 21.675781 22.367188 21.582031 C 22.949219 21.507812 23.167969 21.308594 23.246094 21.191406 C 23.300781 21.117188 23.359375 21.023438 23.304688 20.960938 L 21.761719 19.230469 C 21.761719 19.230469 21.503906 18.984375 21.589844 18.890625 C 21.675781 18.796875 21.832031 18.933594 21.945312 19.027344 C 22.734375 19.691406 23.691406 20.6875 23.691406 20.6875 C 23.710938 20.699219 23.773438 20.828125 24.128906 20.890625 C 24.433594 20.945312 24.976562 20.914062 25.351562 20.601562 C 25.445312 20.523438 25.539062 20.425781 25.621094 20.324219 C 25.613281 20.332031 25.609375 20.335938 25.601562 20.339844 C 26 19.828125 25.558594 19.3125 25.558594 19.3125 L 23.753906 17.269531 C 23.753906 17.269531 23.496094 17.03125 23.582031 16.933594 C 23.660156 16.847656 23.828125 16.976562 23.941406 17.070312 C 24.511719 17.554688 25.320312 18.371094 26.09375 19.132812 C 26.246094 19.246094 26.925781 19.667969 27.824219 19.074219 C 28.371094 18.710938 28.480469 18.265625 28.464844 17.933594 C 28.429688 17.492188 28.085938 17.175781 28.085938 17.175781 L 25.621094 14.675781 C 25.621094 14.675781 25.359375 14.453125 25.449219 14.335938 C 25.527344 14.242188 25.695312 14.378906 25.808594 14.472656 C 26.589844 15.136719 28.71875 17.101562 28.71875 17.101562 C 28.75 17.121094 29.484375 17.648438 30.390625 17.066406 C 30.71875 16.859375 30.925781 16.542969 30.941406 16.175781 C 30.972656 15.539062 30.527344 15.164062 30.527344 15.164062 Z M 30.53125 15.164062 "/>
<path style=" stroke:none;fill-rule:nonzero;fill:rgb(100%,100%,100%);fill-opacity:1;" d="M 18.570312 18.328125 C 18.1875 18.324219 17.769531 18.554688 17.714844 18.519531 C 17.683594 18.5 17.738281 18.347656 17.773438 18.257812 C 17.808594 18.167969 18.3125 16.640625 17.085938 16.109375 C 16.148438 15.703125 15.570312 16.160156 15.375 16.367188 C 15.324219 16.421875 15.300781 16.417969 15.292969 16.351562 C 15.273438 16.074219 15.152344 15.332031 14.339844 15.082031 C 13.183594 14.722656 12.4375 15.539062 12.25 15.832031 C 12.164062 15.167969 11.605469 14.652344 10.921875 14.648438 C 10.179688 14.648438 9.578125 15.253906 9.574219 16.003906 C 9.574219 16.753906 10.175781 17.363281 10.921875 17.363281 C 11.28125 17.363281 11.609375 17.214844 11.851562 16.984375 C 11.859375 16.988281 11.863281 17.003906 11.859375 17.027344 C 11.800781 17.363281 11.699219 18.582031 12.964844 19.078125 C 13.472656 19.277344 13.902344 19.128906 14.261719 18.875 C 14.367188 18.800781 14.386719 18.832031 14.371094 18.933594 C 14.324219 19.25 14.382812 19.917969 15.316406 20.300781 C 16.023438 20.589844 16.445312 20.292969 16.71875 20.035156 C 16.839844 19.925781 16.871094 19.945312 16.878906 20.113281 C 16.914062 21.019531 17.660156 21.742188 18.566406 21.742188 C 19.503906 21.742188 20.261719 20.980469 20.261719 20.039062 C 20.261719 19.097656 19.503906 18.34375 18.570312 18.332031 Z M 18.570312 18.328125 "/>
<path style=" stroke:none;fill-rule:nonzero;fill:rgb(3.921569%,0%,50.196081%);fill-opacity:1;" d="M 20.046875 0 C 8.976562 0 0.00390625 5.933594 0.00390625 13.214844 C 0.00390625 13.402344 0 13.921875 0 13.988281 C 0 21.714844 7.84375 27.96875 20.046875 27.96875 C 32.246094 27.96875 40.09375 21.714844 40.09375 13.988281 L 40.09375 13.214844 C 40.09375 5.933594 31.117188 0 20.046875 0 Z M 39.191406 11.75 C 34.832031 12.726562 31.582031 14.144531 30.769531 14.507812 C 28.867188 12.835938 24.472656 8.984375 23.28125 8.085938 C 22.601562 7.570312 22.136719 7.296875 21.730469 7.175781 C 21.546875 7.117188 21.296875 7.054688 20.96875 7.054688 C 20.667969 7.054688 20.339844 7.109375 20.003906 7.21875 C 19.234375 7.464844 18.46875 8.078125 17.726562 8.671875 L 17.6875 8.703125 C 16.996094 9.257812 16.285156 9.828125 15.742188 9.949219 C 15.507812 10.003906 15.265625 10.03125 15.023438 10.03125 C 14.417969 10.03125 13.875 9.855469 13.671875 9.59375 C 13.636719 9.550781 13.660156 9.480469 13.738281 9.378906 L 13.746094 9.363281 L 15.421875 7.546875 C 16.730469 6.226562 17.96875 4.980469 20.816406 4.914062 C 20.863281 4.914062 20.914062 4.910156 20.960938 4.910156 C 22.734375 4.914062 24.503906 5.710938 24.707031 5.808594 C 26.367188 6.625 28.085938 7.039062 29.808594 7.039062 C 31.601562 7.039062 33.453125 6.59375 35.398438 5.691406 C 37.433594 7.414062 38.777344 9.492188 39.191406 11.75 Z M 20.050781 0.78125 C 25.929688 0.78125 31.183594 2.476562 34.722656 5.152344 C 33.011719 5.898438 31.382812 6.273438 29.8125 6.273438 C 28.203125 6.269531 26.597656 5.882812 25.035156 5.113281 C 24.953125 5.074219 22.996094 4.144531 20.960938 4.144531 C 20.90625 4.144531 20.851562 4.144531 20.800781 4.144531 C 18.40625 4.203125 17.058594 5.058594 16.152344 5.808594 C 15.273438 5.832031 14.511719 6.042969 13.832031 6.234375 C 13.230469 6.402344 12.707031 6.550781 12.199219 6.550781 C 11.992188 6.550781 11.613281 6.53125 11.582031 6.527344 C 10.996094 6.511719 8.066406 5.785156 5.726562 4.894531 C 9.253906 2.367188 14.363281 0.777344 20.050781 0.777344 Z M 5.03125 5.425781 C 7.472656 6.429688 10.441406 7.210938 11.378906 7.273438 C 11.640625 7.289062 11.917969 7.320312 12.199219 7.320312 C 12.820312 7.320312 13.441406 7.144531 14.042969 6.976562 C 14.394531 6.875 14.789062 6.765625 15.199219 6.6875 C 15.089844 6.792969 14.980469 6.90625 14.871094 7.015625 L 13.171875 8.871094 C 13.035156 9.007812 12.746094 9.371094 12.9375 9.816406 C 13.011719 9.996094 13.167969 10.171875 13.382812 10.316406 C 13.789062 10.589844 14.515625 10.777344 15.1875 10.777344 C 15.441406 10.777344 15.6875 10.753906 15.90625 10.703125 C 16.621094 10.542969 17.367188 9.941406 18.160156 9.304688 C 18.789062 8.800781 19.683594 8.160156 20.371094 7.972656 C 20.566406 7.917969 20.800781 7.886719 20.988281 7.886719 C 21.046875 7.886719 21.101562 7.886719 21.148438 7.894531 C 21.601562 7.953125 22.039062 8.105469 22.820312 8.699219 C 24.21875 9.757812 30.390625 15.199219 30.449219 15.253906 C 30.457031 15.257812 30.847656 15.601562 30.820312 16.167969 C 30.804688 16.484375 30.632812 16.769531 30.328125 16.964844 C 30.0625 17.132812 29.792969 17.21875 29.515625 17.21875 C 29.105469 17.21875 28.820312 17.023438 28.800781 17.007812 C 28.777344 16.992188 26.664062 15.035156 25.886719 14.378906 C 25.761719 14.273438 25.640625 14.179688 25.519531 14.179688 C 25.453125 14.179688 25.394531 14.210938 25.355469 14.257812 C 25.234375 14.410156 25.371094 14.621094 25.53125 14.761719 L 28.003906 17.265625 C 28.003906 17.265625 28.3125 17.554688 28.347656 17.9375 C 28.367188 18.351562 28.167969 18.699219 27.757812 18.972656 C 27.46875 19.164062 27.171875 19.261719 26.882812 19.261719 C 26.503906 19.261719 26.238281 19.085938 26.179688 19.046875 L 25.824219 18.695312 C 25.175781 18.050781 24.507812 17.386719 24.019531 16.976562 C 23.898438 16.878906 23.769531 16.785156 23.648438 16.785156 C 23.589844 16.785156 23.535156 16.808594 23.492188 16.851562 C 23.4375 16.914062 23.398438 17.027344 23.539062 17.214844 C 23.59375 17.292969 23.664062 17.355469 23.664062 17.355469 L 25.464844 19.394531 C 25.480469 19.414062 25.835938 19.84375 25.503906 20.265625 L 25.441406 20.347656 C 25.386719 20.40625 25.328125 20.464844 25.273438 20.511719 C 24.964844 20.765625 24.554688 20.792969 24.394531 20.792969 C 24.304688 20.792969 24.222656 20.785156 24.148438 20.773438 C 23.972656 20.738281 23.851562 20.691406 23.792969 20.621094 L 23.769531 20.597656 C 23.671875 20.496094 22.761719 19.5625 22.011719 18.929688 C 21.910156 18.84375 21.789062 18.742188 21.660156 18.742188 C 21.597656 18.742188 21.542969 18.765625 21.496094 18.8125 C 21.347656 18.976562 21.574219 19.222656 21.667969 19.3125 L 23.203125 21.023438 C 23.203125 21.039062 23.183594 21.074219 23.148438 21.125 C 23.089844 21.203125 22.90625 21.390625 22.347656 21.460938 C 22.28125 21.46875 22.210938 21.472656 22.144531 21.472656 C 21.570312 21.472656 20.953125 21.191406 20.636719 21.023438 C 20.78125 20.71875 20.855469 20.378906 20.855469 20.042969 C 20.855469 18.765625 19.828125 17.730469 18.5625 17.726562 C 18.535156 17.726562 18.507812 17.726562 18.480469 17.730469 C 18.519531 17.144531 18.441406 16.042969 17.316406 15.558594 C 16.992188 15.417969 16.671875 15.34375 16.359375 15.34375 C 16.113281 15.34375 15.875 15.386719 15.652344 15.472656 C 15.421875 15.015625 15.035156 14.683594 14.53125 14.511719 C 14.253906 14.414062 13.976562 14.363281 13.707031 14.363281 C 13.242188 14.363281 12.808594 14.503906 12.425781 14.777344 C 12.058594 14.316406 11.5 14.042969 10.917969 14.042969 C 10.402344 14.042969 9.910156 14.25 9.546875 14.613281 C 9.066406 14.246094 7.167969 13.03125 2.085938 11.867188 C 1.84375 11.8125 1.292969 11.652344 0.945312 11.550781 C 1.421875 9.25 2.871094 7.152344 5.023438 5.425781 Z M 14.457031 18.761719 L 14.402344 18.710938 L 14.347656 18.710938 C 14.304688 18.710938 14.253906 18.730469 14.191406 18.773438 C 13.933594 18.957031 13.6875 19.046875 13.433594 19.046875 C 13.292969 19.046875 13.152344 19.019531 13.007812 18.964844 C 11.832031 18.5 11.921875 17.382812 11.980469 17.042969 C 11.988281 16.972656 11.972656 16.921875 11.929688 16.886719 L 11.847656 16.816406 L 11.769531 16.890625 C 11.539062 17.113281 11.238281 17.234375 10.921875 17.234375 C 10.246094 17.234375 9.699219 16.683594 9.699219 16.003906 C 9.699219 15.324219 10.25 14.769531 10.925781 14.769531 C 11.535156 14.769531 12.054688 15.234375 12.128906 15.847656 L 12.171875 16.179688 L 12.351562 15.898438 C 12.371094 15.867188 12.867188 15.113281 13.777344 15.113281 C 13.949219 15.113281 14.128906 15.140625 14.308594 15.199219 C 15.03125 15.417969 15.15625 16.082031 15.175781 16.359375 C 15.1875 16.519531 15.300781 16.527344 15.320312 16.527344 C 15.382812 16.527344 15.429688 16.488281 15.460938 16.453125 C 15.601562 16.308594 15.898438 16.070312 16.363281 16.070312 C 16.578125 16.070312 16.804688 16.121094 17.039062 16.222656 C 18.1875 16.722656 17.667969 18.195312 17.660156 18.210938 C 17.5625 18.457031 17.558594 18.5625 17.652344 18.625 L 17.695312 18.648438 L 17.730469 18.648438 C 17.78125 18.648438 17.84375 18.625 17.953125 18.589844 C 18.109375 18.535156 18.34375 18.453125 18.566406 18.453125 C 19.433594 18.460938 20.140625 19.171875 20.140625 20.035156 C 20.140625 20.910156 19.433594 21.617188 18.566406 21.617188 C 17.71875 21.617188 17.027344 20.953125 17 20.105469 C 16.996094 20.035156 16.988281 19.84375 16.828125 19.84375 C 16.761719 19.84375 16.703125 19.882812 16.636719 19.941406 C 16.449219 20.117188 16.210938 20.292969 15.867188 20.292969 C 15.707031 20.292969 15.539062 20.257812 15.359375 20.183594 C 14.464844 19.816406 14.449219 19.199219 14.488281 18.949219 C 14.496094 18.882812 14.5 18.8125 14.453125 18.757812 Z M 20.050781 25.636719 C 9.40625 25.636719 0.777344 20.074219 0.777344 13.210938 C 0.777344 12.933594 0.796875 12.660156 0.820312 12.386719 C 0.90625 12.410156 1.753906 12.609375 1.929688 12.652344 C 7.121094 13.8125 8.835938 15.023438 9.125 15.253906 C 9.027344 15.488281 8.976562 15.746094 8.976562 16.003906 C 8.976562 17.085938 9.847656 17.96875 10.921875 17.96875 C 11.039062 17.96875 11.160156 17.957031 11.277344 17.933594 C 11.441406 18.730469 11.957031 19.335938 12.746094 19.644531 C 12.976562 19.730469 13.207031 19.777344 13.4375 19.777344 C 13.585938 19.777344 13.734375 19.761719 13.882812 19.722656 C 14.027344 20.097656 14.355469 20.5625 15.089844 20.863281 C 15.34375 20.964844 15.601562 21.019531 15.851562 21.019531 C 16.054688 21.019531 16.253906 20.984375 16.445312 20.914062 C 16.796875 21.777344 17.632812 22.347656 18.566406 22.347656 C 19.183594 22.347656 19.777344 22.097656 20.210938 21.648438 C 20.582031 21.855469 21.363281 22.230469 22.152344 22.234375 C 22.253906 22.234375 22.347656 22.226562 22.445312 22.214844 C 23.230469 22.113281 23.59375 21.804688 23.761719 21.5625 C 23.792969 21.523438 23.820312 21.476562 23.84375 21.429688 C 24.027344 21.484375 24.230469 21.527344 24.464844 21.527344 C 24.894531 21.527344 25.304688 21.382812 25.722656 21.078125 C 26.128906 20.78125 26.421875 20.355469 26.460938 19.992188 C 26.460938 19.988281 26.460938 19.980469 26.464844 19.976562 C 26.601562 20.003906 26.742188 20.019531 26.882812 20.019531 C 27.324219 20.019531 27.757812 19.878906 28.175781 19.605469 C 28.972656 19.078125 29.113281 18.386719 29.101562 17.933594 C 29.242188 17.964844 29.382812 17.980469 29.527344 17.980469 C 29.9375 17.980469 30.347656 17.855469 30.734375 17.605469 C 31.230469 17.285156 31.527344 16.796875 31.574219 16.230469 C 31.601562 15.84375 31.507812 15.449219 31.308594 15.117188 C 32.644531 14.535156 35.699219 13.410156 39.300781 12.59375 C 39.316406 12.796875 39.324219 13.003906 39.324219 13.214844 C 39.324219 20.078125 30.695312 25.640625 20.050781 25.640625 Z M 20.050781 25.636719 "/>
<path style=" stroke:none;fill-rule:nonzero;fill:rgb(3.921569%,0%,50.196081%);fill-opacity:1;" d="M 108.816406 4.066406 C 108.089844 3.148438 106.984375 2.6875 105.5 2.6875 C 104.019531 2.6875 102.914062 3.148438 102.1875 4.066406 C 101.460938 4.988281 101.09375 6.074219 101.09375 7.328125 C 101.09375 8.582031 101.460938 9.691406 102.1875 10.597656 C 102.914062 11.503906 104.019531 11.957031 105.5 11.957031 C 106.984375 11.957031 108.089844 11.503906 108.816406 10.597656 C 109.546875 9.691406 109.910156 8.601562 109.910156 7.328125 C 109.910156 6.050781 109.546875 4.988281 108.816406 4.066406 Z M 107.011719 9.339844 C 106.660156 9.8125 106.15625 10.050781 105.492188 10.050781 C 104.832031 10.050781 104.328125 9.8125 103.96875 9.339844 C 103.613281 8.871094 103.4375 8.199219 103.4375 7.328125 C 103.4375 6.457031 103.613281 5.785156 103.96875 5.316406 C 104.328125 4.847656 104.835938 4.609375 105.492188 4.609375 C 106.152344 4.609375 106.660156 4.847656 107.011719 5.316406 C 107.367188 5.785156 107.542969 6.457031 107.542969 7.328125 C 107.542969 8.195312 107.367188 8.871094 107.011719 9.339844 Z M 107.011719 9.339844 "/>
<path style=" stroke:none;fill-rule:nonzero;fill:rgb(3.921569%,0%,50.196081%);fill-opacity:1;" d="M 90.210938 3.296875 C 89.472656 2.921875 88.628906 2.730469 87.679688 2.730469 C 86.21875 2.730469 85.1875 3.113281 84.585938 3.882812 C 84.207031 4.375 83.996094 5 83.945312 5.761719 L 86.128906 5.761719 C 86.183594 5.425781 86.289062 5.160156 86.453125 4.960938 C 86.675781 4.695312 87.058594 4.5625 87.601562 4.5625 C 88.082031 4.5625 88.449219 4.628906 88.699219 4.765625 C 88.949219 4.902344 89.074219 5.148438 89.074219 5.507812 C 89.074219 5.800781 88.914062 6.015625 88.585938 6.15625 C 88.40625 6.234375 88.105469 6.300781 87.683594 6.355469 L 86.910156 6.453125 C 86.027344 6.5625 85.363281 6.75 84.910156 7.011719 C 84.082031 7.492188 83.667969 8.269531 83.667969 9.339844 C 83.667969 10.167969 83.925781 10.804688 84.441406 11.257812 C 84.953125 11.707031 85.605469 11.894531 86.390625 11.933594 C 91.328125 12.15625 91.273438 9.308594 91.320312 8.71875 L 91.320312 5.445312 C 91.320312 4.394531 90.949219 3.679688 90.210938 3.300781 Z M 89.066406 8.269531 C 89.050781 9.03125 88.832031 9.554688 88.417969 9.84375 C 88 10.132812 87.546875 10.277344 87.050781 10.277344 C 86.738281 10.277344 86.472656 10.1875 86.257812 10.015625 C 86.039062 9.84375 85.929688 9.558594 85.929688 9.167969 C 85.929688 8.734375 86.109375 8.410156 86.464844 8.203125 C 86.675781 8.078125 87.019531 7.976562 87.503906 7.890625 L 88.019531 7.796875 C 88.277344 7.746094 88.476562 7.691406 88.625 7.636719 C 88.773438 7.582031 88.917969 7.507812 89.0625 7.417969 L 89.0625 8.265625 Z M 89.066406 8.269531 "/>
<path style=" stroke:none;fill-rule:nonzero;fill:rgb(3.921569%,0%,50.196081%);fill-opacity:1;" d="M 78.953125 4.679688 C 79.519531 4.679688 79.929688 4.855469 80.199219 5.207031 C 80.382812 5.46875 80.5 5.761719 80.542969 6.085938 L 82.980469 6.085938 C 82.847656 4.847656 82.417969 3.984375 81.6875 3.492188 C 80.960938 3.003906 80.027344 2.761719 78.886719 2.761719 C 77.546875 2.761719 76.492188 3.175781 75.730469 4.003906 C 74.96875 4.835938 74.585938 5.996094 74.585938 7.488281 C 74.585938 8.804688 74.929688 9.882812 75.621094 10.714844 C 76.3125 11.542969 77.390625 11.957031 78.851562 11.957031 C 80.316406 11.957031 81.421875 11.460938 82.167969 10.464844 C 82.636719 9.847656 82.898438 9.195312 82.953125 8.503906 L 80.527344 8.503906 C 80.476562 8.960938 80.335938 9.332031 80.097656 9.621094 C 79.867188 9.90625 79.46875 10.050781 78.914062 10.050781 C 78.125 10.050781 77.589844 9.6875 77.308594 8.964844 C 77.152344 8.578125 77.070312 8.066406 77.070312 7.429688 C 77.070312 6.792969 77.152344 6.226562 77.308594 5.820312 C 77.601562 5.0625 78.152344 4.679688 78.953125 4.679688 Z M 78.953125 4.679688 "/>
<path style=" stroke:none;fill-rule:nonzero;fill:rgb(3.921569%,0%,50.196081%);fill-opacity:1;" d="M 73.933594 2.761719 C 68.929688 2.761719 69.226562 7.226562 69.226562 7.226562 L 69.226562 11.761719 L 71.496094 11.761719 L 71.496094 7.507812 C 71.496094 6.808594 71.585938 6.296875 71.757812 5.957031 C 72.066406 5.363281 72.679688 5.066406 73.585938 5.066406 C 73.652344 5.066406 73.742188 5.070312 73.851562 5.074219 C 73.964844 5.082031 74.089844 5.089844 74.234375 5.109375 L 74.234375 2.777344 C 74.132812 2.773438 74.066406 2.769531 74.039062 2.765625 C 74.011719 2.761719 73.976562 2.761719 73.933594 2.761719 Z M 73.933594 2.761719 "/>
<path style=" stroke:none;fill-rule:nonzero;fill:rgb(3.921569%,0%,50.196081%);fill-opacity:1;" d="M 67.40625 4.453125 C 67.011719 3.867188 66.515625 3.4375 65.914062 3.164062 C 65.3125 2.894531 64.636719 2.757812 63.886719 2.757812 C 62.621094 2.757812 61.59375 3.160156 60.800781 3.964844 C 60.011719 4.769531 59.613281 5.921875 59.613281 7.429688 C 59.613281 9.039062 60.054688 10.195312 60.929688 10.910156 C 61.808594 11.621094 62.820312 11.980469 63.96875 11.980469 C 65.359375 11.980469 66.441406 11.558594 67.210938 10.710938 C 67.628906 10.265625 67.890625 9.828125 68 9.390625 L 65.59375 9.390625 C 65.496094 9.53125 65.394531 9.648438 65.28125 9.738281 C 64.960938 10.003906 64.527344 10.085938 64.011719 10.085938 C 63.527344 10.085938 63.148438 10.011719 62.804688 9.792969 C 62.238281 9.441406 61.917969 8.847656 61.882812 7.976562 L 68.167969 7.976562 C 68.175781 7.226562 68.152344 6.652344 68.09375 6.25 C 67.988281 5.570312 67.757812 4.972656 67.40625 4.453125 Z M 61.941406 6.476562 C 62.019531 5.910156 62.222656 5.460938 62.539062 5.128906 C 62.859375 4.800781 63.308594 4.632812 63.886719 4.632812 C 64.417969 4.632812 64.867188 4.789062 65.226562 5.101562 C 65.585938 5.414062 65.785156 5.875 65.828125 6.476562 Z M 61.941406 6.476562 "/>
<path style=" stroke:none;fill-rule:nonzero;fill:rgb(3.921569%,0%,50.196081%);fill-opacity:1;" d="M 55.101562 2.730469 C 54.046875 2.730469 53.136719 3.195312 52.523438 3.941406 C 51.941406 3.195312 51.046875 2.730469 49.945312 2.730469 C 47.726562 2.730469 46.296875 4.371094 46.296875 6.546875 L 46.296875 11.761719 L 48.371094 11.761719 L 48.371094 6.496094 C 48.371094 5.535156 49.015625 4.871094 49.945312 4.871094 C 51.3125 4.871094 51.453125 6.015625 51.453125 6.496094 L 51.453125 11.761719 L 53.53125 11.761719 L 53.53125 6.496094 C 53.53125 5.535156 54.191406 4.871094 55.101562 4.871094 C 56.46875 4.871094 56.628906 6.015625 56.628906 6.496094 L 56.628906 11.761719 L 58.699219 11.761719 L 58.699219 6.546875 C 58.699219 4.304688 57.367188 2.730469 55.101562 2.730469 Z M 55.101562 2.730469 "/>
<path style=" stroke:none;fill-rule:nonzero;fill:rgb(3.921569%,0%,50.196081%);fill-opacity:1;" d="M 98.132812 1.617188 L 98.128906 4.070312 C 97.875 3.660156 97.546875 3.335938 97.140625 3.109375 C 96.734375 2.878906 96.269531 2.761719 95.746094 2.761719 C 94.613281 2.761719 93.710938 3.1875 93.03125 4.035156 C 92.351562 4.886719 92.011719 6.113281 92.011719 7.597656 C 92.011719 8.882812 92.359375 9.9375 93.046875 10.761719 C 93.734375 11.582031 95.085938 11.941406 96.285156 11.941406 C 100.464844 11.941406 100.414062 8.328125 100.414062 8.328125 L 100.414062 0.0117188 C 100.414062 0.0117188 98.128906 -0.234375 98.128906 1.617188 Z M 97.695312 9.359375 C 97.363281 9.839844 96.875 10.078125 96.238281 10.078125 C 95.601562 10.078125 95.125 9.835938 94.808594 9.355469 C 94.496094 8.875 94.339844 8.171875 94.339844 7.371094 C 94.339844 6.625 94.492188 6.003906 94.800781 5.5 C 95.109375 5 95.59375 4.746094 96.253906 4.746094 C 96.6875 4.746094 97.066406 4.886719 97.394531 5.160156 C 97.925781 5.617188 98.195312 6.441406 98.195312 7.503906 C 98.195312 8.261719 98.027344 8.882812 97.695312 9.359375 Z M 97.695312 9.359375 "/>
<path style=" stroke:none;fill-rule:nonzero;fill:rgb(3.921569%,0%,50.196081%);fill-opacity:1;" d="M 51.09375 15.257812 C 49.222656 15.171875 48.28125 15.621094 47.664062 16.09375 C 46.8125 16.746094 46.296875 17.714844 46.296875 19.261719 L 46.296875 27.214844 L 47.394531 27.214844 C 47.691406 27.214844 47.984375 27.109375 48.203125 26.910156 C 48.445312 26.683594 48.566406 26.410156 48.566406 26.085938 L 48.566406 23.113281 C 48.832031 23.578125 49.1875 23.921875 49.632812 24.144531 C 50.058594 24.339844 50.546875 24.441406 51.101562 24.441406 C 52.144531 24.441406 53.003906 24.023438 53.671875 23.179688 C 54.339844 22.3125 54.671875 21.1875 54.671875 19.792969 C 54.671875 18.398438 54.355469 17.40625 53.597656 16.476562 C 52.988281 15.726562 52.058594 15.304688 51.09375 15.257812 Z M 51.867188 21.785156 C 51.535156 22.25 51.078125 22.484375 50.5 22.484375 C 49.878906 22.484375 49.398438 22.253906 49.066406 21.785156 C 48.730469 21.363281 48.5625 20.738281 48.5625 19.894531 C 48.5625 18.988281 48.71875 18.324219 49.03125 17.902344 C 49.367188 17.4375 49.832031 17.203125 50.433594 17.203125 C 51.035156 17.203125 51.535156 17.4375 51.867188 17.902344 C 52.203125 18.367188 52.371094 19.03125 52.371094 19.894531 C 52.371094 20.691406 52.203125 21.320312 51.867188 21.785156 Z M 51.867188 21.785156 "/>
<path style=" stroke:none;fill-rule:nonzero;fill:rgb(3.921569%,0%,50.196081%);fill-opacity:1;" d="M 70.597656 16.078125 C 69.828125 15.488281 69.039062 15.183594 67.683594 15.21875 C 66.304688 15.257812 65.304688 15.644531 64.683594 16.496094 C 64.058594 17.347656 63.75 18.457031 63.75 19.828125 C 63.75 21 63.984375 21.941406 64.453125 22.664062 C 64.921875 23.382812 65.484375 23.875 66.140625 24.136719 C 66.796875 24.402344 67.457031 24.457031 68.125 24.304688 C 68.789062 24.148438 69.320312 23.765625 69.714844 23.144531 L 69.714844 23.707031 C 69.671875 24.414062 69.5 24.945312 69.207031 25.300781 C 68.910156 25.652344 68.582031 25.867188 68.222656 25.945312 C 67.863281 26.023438 67.503906 25.980469 67.144531 25.8125 C 66.78125 25.648438 66.515625 25.410156 66.339844 25.101562 L 63.949219 25.101562 C 64.566406 26.976562 65.679688 27.804688 67.683594 27.953125 C 70.917969 28.1875 71.949219 25.429688 71.945312 23.9375 L 71.945312 19.261719 C 71.945312 17.714844 71.445312 16.722656 70.601562 16.078125 Z M 69.648438 20.675781 C 69.558594 21.191406 69.417969 21.574219 69.21875 21.816406 C 68.804688 22.390625 68.160156 22.59375 67.289062 22.433594 C 66.414062 22.265625 65.976562 21.417969 65.976562 19.894531 C 65.976562 19.1875 66.105469 18.558594 66.371094 18.003906 C 66.632812 17.453125 67.132812 17.175781 67.875 17.175781 C 68.421875 17.175781 68.839844 17.375 69.121094 17.769531 C 69.40625 18.167969 69.585938 18.621094 69.664062 19.132812 C 69.738281 19.640625 69.734375 20.15625 69.644531 20.671875 Z M 69.648438 20.675781 "/>
<path style=" stroke:none;fill-rule:nonzero;fill:rgb(3.921569%,0%,50.196081%);fill-opacity:1;" d="M 61.804688 15.847656 C 61.066406 15.472656 60.222656 15.28125 59.273438 15.28125 C 57.8125 15.28125 56.78125 15.664062 56.179688 16.433594 C 55.804688 16.921875 55.59375 17.550781 55.542969 18.3125 L 57.726562 18.3125 C 57.78125 17.976562 57.886719 17.707031 58.046875 17.511719 C 58.273438 17.246094 58.65625 17.113281 59.195312 17.113281 C 59.679688 17.113281 60.046875 17.179688 60.296875 17.316406 C 60.542969 17.453125 60.667969 17.699219 60.667969 18.054688 C 60.667969 18.347656 60.507812 18.566406 60.183594 18.703125 C 60 18.785156 59.699219 18.851562 59.277344 18.902344 L 58.503906 18.996094 C 57.625 19.109375 56.957031 19.296875 56.507812 19.558594 C 55.679688 20.039062 55.265625 20.8125 55.265625 21.886719 C 55.265625 22.710938 55.523438 23.351562 56.039062 23.800781 C 56.550781 24.253906 57.203125 24.441406 57.988281 24.476562 C 62.925781 24.699219 62.871094 21.855469 62.914062 21.265625 L 62.914062 17.992188 C 62.914062 16.941406 62.546875 16.226562 61.808594 15.847656 Z M 60.660156 20.816406 C 60.644531 21.578125 60.425781 22.101562 60.011719 22.390625 C 59.597656 22.679688 59.140625 22.824219 58.648438 22.824219 C 58.335938 22.824219 58.070312 22.734375 57.851562 22.5625 C 57.632812 22.390625 57.523438 22.109375 57.523438 21.71875 C 57.523438 21.28125 57.703125 20.960938 58.058594 20.753906 C 58.273438 20.628906 58.617188 20.527344 59.101562 20.441406 L 59.617188 20.347656 C 59.875 20.296875 60.074219 20.246094 60.222656 20.191406 C 60.371094 20.132812 60.515625 20.0625 60.660156 19.96875 L 60.660156 20.820312 Z M 60.660156 20.816406 "/>
<path style=" stroke:none;fill-rule:nonzero;fill:rgb(3.921569%,0%,50.196081%);fill-opacity:1;" d="M 80.527344 16.570312 C 79.800781 15.648438 78.695312 15.1875 77.210938 15.1875 C 75.730469 15.1875 74.625 15.648438 73.898438 16.570312 C 73.171875 17.488281 72.804688 18.574219 72.804688 19.828125 C 72.804688 21.082031 73.171875 22.191406 73.898438 23.097656 C 74.625 24 75.730469 24.453125 77.210938 24.453125 C 78.691406 24.453125 79.796875 24 80.527344 23.097656 C 81.257812 22.191406 81.617188 21.101562 81.617188 19.828125 C 81.617188 18.550781 81.257812 17.488281 80.527344 16.570312 Z M 78.722656 21.839844 C 78.371094 22.3125 77.867188 22.550781 77.207031 22.550781 C 76.546875 22.550781 76.039062 22.3125 75.683594 21.839844 C 75.324219 21.367188 75.148438 20.699219 75.148438 19.828125 C 75.148438 18.957031 75.324219 18.285156 75.683594 17.816406 C 76.039062 17.347656 76.546875 17.109375 77.207031 17.109375 C 77.867188 17.109375 78.371094 17.347656 78.722656 17.816406 C 79.078125 18.285156 79.253906 18.957031 79.253906 19.828125 C 79.253906 20.699219 79.078125 21.367188 78.722656 21.839844 Z M 78.722656 21.839844 "/>
</g>
</svg>
